<svg version="1.2" xmlns="http://www.w3.org/2000/svg" viewBox="0 0 187 186" width="187" height="186"><style>.a{fill:#e06331}</style><path class="a" d="m102.5 24.8c-0.2 2.1-1.3 3.9-4 4-2.9 0.1-5.4-3.2-5.3-6.9 0.1-2.7 1.2-4.6 4.1-4.6 2.7-0.1 5.3 3.6 5.2 7.5zm51-18.7c-0.2 2.2-1.4 3.8-4.1 4-2.9 0.2-6.1-3-6-6 0.1-2.6 1.7-4 4.2-4.1 2.8-0.1 5.8 2.9 5.9 6.1zm-99.7 50.5c0.1-2.5 0.1-4.7 2.6-5.1 2.5-0.4 3.4 1.5 4 3.4 0.4 1.6 0.7 3.3 0.8 4.9 0 1.8-0.7 3.4-2.7 3.8-2 0.3-3.2-0.9-3.8-2.6-0.5-1.6-0.7-3.3-0.9-4.4zm-45.8 40.1c-3 0-4.8-2.3-4.9-6.2 0-1.8 0.1-3.8 2.6-4 2.2-0.1 6 3.8 6 6.3 0.1 2.3-1.4 3.9-3.7 3.9zm82.1 66.1c3.4-0.1 7.3 5.9 5.9 8.5-0.8 1.7-2.3 1.9-4 1.3-2.3-0.7-4.7-4.8-4.3-7.2 0.3-1.5 1.2-2.5 2.4-2.6zm58-104c-0.2 2.3-1.3 4.1-3.8 4.1-2.7-0.1-4.2-1.9-4.1-4.6 0-2.4 1.5-3.9 3.9-3.8 2.6 0 3.8 1.8 4 4.3zm14.1 74.6c-0.2 2.3-1.1 4.2-3.6 4.2-2.6 0-4.1-1.8-4.3-4.2-0.1-2.4 1.2-4.1 3.7-4.2 2.6-0.1 3.8 1.7 4.2 4.2zm24.8-69.8c-0.4 2.3-1.4 4.6-4.2 4.6-2.5 0-3.4-2.3-3.4-4.4 0-2.4 1.4-4 3.9-4 2.4-0.1 3.4 1.4 3.7 3.8zm-47 118.6c-0.3 2.2-1.3 3.8-3.7 3.8-2.5 0-3.8-1.6-3.7-4 0-2.2 1.5-3.6 3.8-3.6 2.2 0.1 3.4 1.6 3.6 3.8zm-86.7-59.9c2.5 0.4 4 1.9 4 4.4 0.1 1.9-1 3.3-3 3.2-2.5 0-3.8-1.5-4.1-3.8-0.2-2.2 0.9-3.4 3.1-3.8zm56.4-12.6c-0.2 1.9-0.8 3.6-2.9 3.5-2.8-0.2-3.4-2.4-3.4-4.8 0-1.9 0.9-3.5 3-3.2 2.5 0.3 3 2.4 3.3 4.5zm-93.5-94.2c-2-0.2-3.3-1.3-3.5-3.4-0.1-2.2 1.2-3.5 3.4-3.5 2.3 0.1 3.5 1.6 3.5 3.8-0.1 2-1.4 3-3.4 3.1zm-16.2 28.1c0.2-1.7 0.4-3.7 2.7-3.6 2.2 0.1 2.8 2.1 2.9 3.9 0.1 1.7-0.6 3.2-2.5 3.3-2.4 0.1-2.9-1.7-3.1-3.6zm21.4 103.7c1.5 0.2 2.3 1 2.2 2.3 0 1.4-0.9 2.2-2.2 2.1-1.4-0.1-2.2-0.9-2.2-2.3 0.1-1.4 1-2 2.2-2.1z"/></svg>